<svg xmlns="http://www.w3.org/2000/svg" viewBox="0 0 80 64" width="80" height="64" fill="none" stroke="#2A1A14" stroke-width="3" stroke-linecap="round" stroke-linejoin="round">
<path d="M14 31l5-18h42l5 18z" fill="#C07D40"/>
<path d="M19.5 29l3.5-12h34l3.5 12z" fill="#7A4124"/>
<path d="M14 33c3-7 9-9 13-7 3-6 9-7 13-3 4-5 11-5 14 1 4-2 9 0 12 9z" fill="#F5BE38"/>
<circle cx="27" cy="25" r="4" fill="#F5BE38" stroke-width="2.4"/>
<circle cx="52" cy="23.5" r="4" fill="#F5BE38" stroke-width="2.4"/>
<path d="M40 16l4 5-4 5-4-5z" fill="#E35D45" stroke-width="2.4"/>
<rect x="12" y="32" width="56" height="24" rx="3" fill="#A8622F"/>
<path d="M24 33.5v21M56 33.5v21" stroke-width="7" stroke-linecap="butt"/>
<path d="M24 33.5v21M56 33.5v21" stroke="#F5BE38" stroke-width="3" stroke-linecap="butt"/>
<rect x="35" y="34" width="10" height="10" rx="2" fill="#F5BE38" stroke-width="2.6"/>
<circle cx="40" cy="39" r="1.3" fill="#2A1A14" stroke="none"/>
<path d="M66 6l1.4 3.4 3.4 1.4-3.4 1.4-1.4 3.4-1.4-3.4-3.4-1.4 3.4-1.4z" fill="#FFF7E6" stroke-width="2"/>
</svg>
