<svg xmlns="http://www.w3.org/2000/svg" viewBox="0 0 64 64" width="64" height="64" fill="none" stroke="#2A1A14" stroke-width="3" stroke-linecap="round" stroke-linejoin="round">
<path d="M26 18c-2-4-1-8 2-10M26 18c2-4 6-6 9-5" stroke="#59B7C4" stroke-width="3"/><path d="M6 38c0-12 10-20 24-20 12 0 20 7 22 16l6-6c2 4 1 9-3 11 1 6-6 11-17 11H20C12 50 6 45 6 38z" fill="#6C9BC4"/><path d="M8 42c4 5 9 7 14 7h14c6 0 10-2 13-5-10 2-28 2-41-2z" fill="#EEF2F4" stroke-width="2.4"/><circle cx="18" cy="33" r="2.2" fill="#2A1A14" stroke="none"/><path d="M14 38c2 1.5 4 1.5 6 0" stroke-width="2.4"/>
</svg>
